<svg xmlns="http://www.w3.org/2000/svg" width="1180" height="800" viewBox="0 0 1180 800" data-viewport="narrow-1180x800">
  <rect class="background" x="0" y="0" width="1180" height="800" />
  <g class="tool-rail" data-width="46">
    <rect class="tool" data-tool="select" x="4" y="6" width="38" height="28" rx="4" />
    <rect class="tool" data-tool="connection" x="4" y="38" width="38" height="28" rx="4" />
    <rect class="tool" data-tool="polygon" x="4" y="70" width="38" height="28" rx="4" />
    <rect class="tool" data-tool="rectangle" x="4" y="102" width="38" height="28" rx="4" />
    <rect class="tool" data-tool="ellipse" x="4" y="134" width="38" height="28" rx="4" />
    <rect class="tool" data-tool="text" x="4" y="166" width="38" height="28" rx="4" />
    <rect class="tool" data-tool="bitmap" x="4" y="198" width="38" height="28" rx="4" />
    <rect class="tool" data-tool="fit" x="4" y="230" width="38" height="28" rx="4" />
    <rect class="tool" data-tool="zoom-in" x="4" y="262" width="38" height="28" rx="4" />
    <rect class="tool" data-tool="zoom-out" x="4" y="294" width="38" height="28" rx="4" />
    <rect class="tool" data-tool="reset" x="4" y="326" width="38" height="28" rx="4" />
  </g>
  <g class="mode-controls" data-compact="true">
    <rect class="mode" data-mode="diagram" x="1060" y="8" width="32" height="24" rx="4" />
    <rect class="mode" data-mode="icon" x="1096" y="8" width="32" height="24" rx="4" />
    <rect class="mode" data-mode="text" x="1132" y="8" width="32" height="24" rx="4" />
  </g>
  <rect class="sheet" x="160" y="60" width="907" height="680" />
  <text class="status" x="160" y="764">Empty diagram</text>
</svg>
